<svg height="512pt" viewBox="-6 0 512 512" width="512pt" xmlns="http://www.w3.org/2000/svg"><path d="m152.125 491.964844c-89.652344-38.289063-152.421875-127.367188-152.125-231.082032.398438-137.730468 113.097656-249.878906 250.824219-249.640624 138.074219.242187 249.933593 112.246093 249.933593 250.378906 0 51.292968-15.421874 98.984375-41.886718 138.6875-.023438.035156-.046875.074218-.070313.109375-4.371093 6.546875-11.789062 10.410156-19.664062 10.410156h-198.789063c-37.355468 0-67.636718 30.28125-67.636718 67.636719 0 10.597656-10.839844 17.664062-20.585938 13.5zm0 0" fill="#fd3980"/><path d="m234.285156 306.585938h-183.953125c-8.464843 0-15.328125-6.863282-15.328125-15.328126v-275.929687c0-8.464844 6.863282-15.328125 15.328125-15.328125h183.953125c8.464844 0 15.328125 6.863281 15.328125 15.328125v275.929687c0 8.464844-6.863281 15.328126-15.328125 15.328126zm0 0" fill="#ffe497"/><path d="m234.285156 306.585938h-143.074218c-8.46875 0-15.332032-6.863282-15.332032-15.328126v-275.929687c0-8.464844 6.863282-15.328125 15.332032-15.328125h143.074218c8.464844 0 15.328125 6.863281 15.328125 15.328125v275.929687c0 8.464844-6.863281 15.328126-15.328125 15.328126zm0 0" fill="#fde5bd"/><path d="m131.832031 306.585938h-40.878906v-306.585938h40.878906zm0 0" fill="#3691bb"/><path d="m203.371094 20.4375c11.285156 0 20.4375 9.152344 20.4375 20.441406 0 11.289063-9.152344 20.4375-20.4375 20.4375-11.289063 0-20.441406-9.148437-20.441406-20.4375 0-11.289062 9.152343-20.441406 20.441406-20.441406zm0 0" fill="#fcb30b"/><path d="m203.371094 51.097656c11.285156 0 20.4375 9.152344 20.4375 20.4375 0 11.289063-9.152344 20.441406-20.4375 20.441406-11.289063 0-20.441406-9.152343-20.441406-20.441406 0-11.285156 9.152343-20.4375 20.441406-20.4375zm0 0" fill="#fc6930"/><path d="m458.859375 400.300781c-44.878906 67.332031-121.496094 111.699219-208.480469 111.699219-34.820312 0-67.976562-7.113281-98.105468-19.960938v-333.636718c0-8.464844 6.863281-15.328125 15.328124-15.328125h275.925782c8.46875 0 15.332031 6.863281 15.332031 15.328125zm0 0" fill="#c5d3dd"/><path d="m458.859375 400.300781c-44.878906 67.332031-121.496094 111.699219-208.480469 111.699219-21.890625 0-43.125-2.816406-63.359375-8.097656v-345.5c0-8.464844 6.863281-15.328125 15.328125-15.328125h241.179688c8.46875 0 15.332031 6.863281 15.332031 15.328125zm0 0" fill="#d9e7ec"/><path d="m332.136719 178.84375h-53.144531c-5.640626 0-10.21875-4.578125-10.21875-10.222656 0-5.644532 4.578124-10.21875 10.21875-10.21875h53.144531c5.644531 0 10.21875 4.574218 10.21875 10.21875 0 5.644531-4.574219 10.222656-10.21875 10.222656zm0 0" fill="#b6c4cf"/><path d="m424.113281 209.5v232.398438c-45.027343 43.402343-106.257812 70.101562-173.734375 70.101562-21.890625 0-43.125-2.816406-63.359375-8.097656v-294.402344c0-8.464844 6.863281-15.328125 15.328125-15.328125h206.433594c8.46875 0 15.332031 6.863281 15.332031 15.328125zm0 0" fill="#92c927"/><path d="m334.914062 324.824219h-10.953124v-31.6875h25.625c10.160156 0 18.398437-8.238281 18.398437-18.398438 0-10.15625-8.238281-18.394531-18.398437-18.394531h-25.625v-1.167969c0-10.160156-8.238282-18.398437-18.394532-18.398437-10.160156 0-18.398437 8.238281-18.398437 18.398437v1.167969h-10.953125c-29.019532 0-52.632813 23.613281-52.632813 52.636719 0 29.023437 23.613281 52.632812 52.632813 52.632812h10.953125v31.691407h-25.625c-10.160157 0-18.394531 8.234374-18.394531 18.394531 0 10.160156 8.234374 18.394531 18.394531 18.394531h25.625v1.171875c0 10.160156 8.238281 18.394531 18.398437 18.394531 10.15625 0 18.394532-8.234375 18.394532-18.394531v-1.171875h10.953124c29.023438 0 52.632813-23.609375 52.632813-52.636719 0-29.019531-23.609375-52.632812-52.632813-52.632812zm-58.699218 0c-8.734375 0-15.84375-7.105469-15.84375-15.84375s7.109375-15.84375 15.84375-15.84375h10.953125v31.6875zm58.699218 68.480469h-10.953124v-31.691407h10.953124c8.734376 0 15.84375 7.109375 15.84375 15.84375 0 8.738281-7.109374 15.847657-15.84375 15.847657zm0 0" fill="#b0d87b"/><path d="m387.546875 377.460938c0 2.570312-.191406 5.09375-.550781 7.566406-8.042969 2.15625-16.5 3.316406-25.222656 3.316406-4.910157 0-9.730469-.367188-14.441407-1.070312 2.136719-2.703126 3.425781-6.109376 3.425781-9.816407 0-8.734375-7.105468-15.84375-15.84375-15.84375h-10.953124v19.089844c-24.996094-10.578125-44.632813-31.332031-53.734376-57.0625 1.847657.757813 3.871094 1.183594 5.988282 1.183594h10.953125v-31.691407h-10.953125c-4.421875 0-8.421875 1.828126-11.296875 4.757813-.148438-2.191406-.230469-4.402344-.230469-6.632813 0-12.210937 2.257812-23.894531 6.375-34.660156 1.695312-.164062 3.414062-.253906 5.152344-.253906h10.953125v-1.171875c0-10.15625 8.238281-18.394531 18.398437-18.394531 10.15625 0 18.394532 8.238281 18.394532 18.394531v1.171875h25.625c10.160156 0 18.398437 8.234375 18.398437 18.394531 0 10.160157-8.238281 18.394531-18.398437 18.394531h-25.625v31.691407h10.953124c29.023438 0 52.632813 23.613281 52.632813 52.636719zm0 0" fill="#d0e8b0"/></svg>